<?xml version="1.0" encoding="utf-8"?><svg width="auto" height="2370" style="overflow:visible " version="1.1" xmlns="http://www.w3.org/2000/svg"><rect x="20" y="20" width="200" height="40" style="fill:white;stroke:black;stroke-width:1" /><text x="30" y="30" font-size="10" style="fill:blue">circuitoEsquema</text><text x="30" y="40" font-size="8" style="fill:black">xmlns: http://www.uniovi.es</text><text x="30" y="50" font-size="8" style="fill:black">xmlns:xsi: http://www.w3.org/2001/XMLSchema-instance</text><text x="30" y="60" font-size="8" style="fill:black">xsi:schemaLocation: http://www.uniovi.es circuito.xsd</text><rect x="240" y="20" width="200" height="40" style="fill:white;stroke:black;stroke-width:1" /><text x="250" y="30" font-size="10" style="fill:blue">circuit</text><path d="M220 40 C240 40 220 40 240 40" style="fill:transparent;stroke:black" /><text x="250" y="40" font-size="8" style="fill:black">name: C. of the Americas</text><text x="250" y="50" font-size="8" style="fill:black">numberLaps: 56</text><rect x="460" y="20" width="200" height="40" style="fill:white;stroke:black;stroke-width:1" /><text x="470" y="30" font-size="10" style="fill:blue">date</text><path d="M440 40 C460 40 440 40 460 40" style="fill:transparent;stroke:black" /><text x="470" y="40" font-size="8" style="fill:black">time: 20:00:00</text><rect x="526" y="20" width="137" height="40" style="fill:green;stroke:black;stroke-width:1" /><text x="536" y="30" font-size="8" style="fill:white">2024-10-20</text><rect x="460" y="70" width="200" height="40" style="fill:white;stroke:black;stroke-width:1" /><text x="470" y="80" font-size="10" style="fill:blue">location</text><path d="M440 40 C460 40 440 90 460 90" style="fill:transparent;stroke:black" /><text x="470" y="90" font-size="8" style="fill:black">country: Estados Unidos</text><rect x="526" y="70" width="137" height="40" style="fill:green;stroke:black;stroke-width:1" /><text x="536" y="80" font-size="8" style="fill:white">Austin</text><rect x="460" y="120" width="200" height="40" style="fill:white;stroke:black;stroke-width:1" /><text x="470" y="130" font-size="10" style="fill:blue">length</text><path d="M440 40 C460 40 440 140 460 140" style="fill:transparent;stroke:black" /><text x="470" y="140" font-size="8" style="fill:black">units: km</text><rect x="526" y="120" width="137" height="40" style="fill:green;stroke:black;stroke-width:1" /><text x="536" y="130" font-size="8" style="fill:white">5513</text><rect x="460" y="170" width="200" height="40" style="fill:white;stroke:black;stroke-width:1" /><text x="470" y="180" font-size="10" style="fill:blue">width</text><path d="M440 40 C460 40 440 190 460 190" style="fill:transparent;stroke:black" /><text x="470" y="190" font-size="8" style="fill:black">units: m</text><rect x="526" y="170" width="137" height="40" style="fill:green;stroke:black;stroke-width:1" /><text x="536" y="180" font-size="8" style="fill:white">24</text><rect x="460" y="220" width="200" height="40" style="fill:white;stroke:black;stroke-width:1" /><text x="470" y="230" font-size="10" style="fill:blue">references</text><path d="M440 40 C460 40 440 240 460 240" style="fill:transparent;stroke:black" /><rect x="680" y="220" width="200" height="40" style="fill:white;stroke:black;stroke-width:1" /><text x="690" y="230" font-size="10" style="fill:blue">reference</text><path d="M660 240 C680 240 660 240 680 240" style="fill:transparent;stroke:black" /><rect x="746" y="220" width="137" height="40" style="fill:green;stroke:black;stroke-width:1" /><text x="756" y="230" font-size="8" style="fill:white">https://circuitoftheamericas.com/</text><rect x="680" y="270" width="200" height="40" style="fill:white;stroke:black;stroke-width:1" /><text x="690" y="280" font-size="10" style="fill:blue">reference</text><path d="M660 240 C680 240 660 290 680 290" style="fill:transparent;stroke:black" /><rect x="746" y="270" width="137" height="40" style="fill:green;stroke:black;stroke-width:1" /><text x="756" y="280" font-size="8" style="fill:white">https://www.formula1.com/en/information/united-states-circuit-of-the-americas-austin.5RpZ6us0a3FoaoRxTMpbxI</text><rect x="680" y="320" width="200" height="40" style="fill:white;stroke:black;stroke-width:1" /><text x="690" y="330" font-size="10" style="fill:blue">reference</text><path d="M660 240 C680 240 660 340 680 340" style="fill:transparent;stroke:black" /><rect x="746" y="320" width="137" height="40" style="fill:green;stroke:black;stroke-width:1" /><text x="756" y="330" font-size="8" style="fill:white">https://www.austintexas.org/listings/circuit-of-the-americas-cota/6879/</text><rect x="460" y="420" width="200" height="40" style="fill:white;stroke:black;stroke-width:1" /><text x="470" y="430" font-size="10" style="fill:blue">fotos</text><path d="M440 40 C460 40 440 440 460 440" style="fill:transparent;stroke:black" /><rect x="680" y="420" width="200" height="40" style="fill:white;stroke:black;stroke-width:1" /><text x="690" y="430" font-size="10" style="fill:blue">foto</text><path d="M660 440 C680 440 660 440 680 440" style="fill:transparent;stroke:black" /><rect x="746" y="420" width="137" height="40" style="fill:green;stroke:black;stroke-width:1" /><text x="756" y="430" font-size="8" style="fill:white">/F1Desktop/xml/circuit_foto_1.jpg</text><rect x="680" y="470" width="200" height="40" style="fill:white;stroke:black;stroke-width:1" /><text x="690" y="480" font-size="10" style="fill:blue">foto</text><path d="M660 440 C680 440 660 490 680 490" style="fill:transparent;stroke:black" /><rect x="746" y="470" width="137" height="40" style="fill:green;stroke:black;stroke-width:1" /><text x="756" y="480" font-size="8" style="fill:white">/F1Desktop/xml/circuit_foto_2.png</text><rect x="460" y="570" width="200" height="40" style="fill:white;stroke:black;stroke-width:1" /><text x="470" y="580" font-size="10" style="fill:blue">videos</text><path d="M440 40 C460 40 440 590 460 590" style="fill:transparent;stroke:black" /><rect x="460" y="620" width="200" height="40" style="fill:white;stroke:black;stroke-width:1" /><text x="470" y="630" font-size="10" style="fill:blue">coordinates</text><path d="M440 40 C460 40 440 640 460 640" style="fill:transparent;stroke:black" /><text x="470" y="640" font-size="8" style="fill:black">latitude: 30.1316667</text><text x="470" y="650" font-size="8" style="fill:black">longitude: -97.63944444444445</text><text x="470" y="660" font-size="8" style="fill:black">height: 164</text><rect x="460" y="670" width="200" height="40" style="fill:white;stroke:black;stroke-width:1" /><text x="470" y="680" font-size="10" style="fill:blue">sections</text><path d="M440 40 C460 40 440 690 460 690" style="fill:transparent;stroke:black" /><rect x="680" y="670" width="200" height="40" style="fill:white;stroke:black;stroke-width:1" /><text x="690" y="680" font-size="10" style="fill:blue">section</text><path d="M660 690 C680 690 660 690 680 690" style="fill:transparent;stroke:black" /><text x="690" y="690" font-size="8" style="fill:black">distance: 780.71</text><text x="690" y="700" font-size="8" style="fill:black">latitude: 30.130027</text><text x="690" y="710" font-size="8" style="fill:black">longitude: -97.636873</text><text x="690" y="720" font-size="8" style="fill:black">height: 184</text><rect x="746" y="670" width="137" height="40" style="fill:green;stroke:black;stroke-width:1" /><text x="756" y="680" font-size="8" style="fill:white">1</text><rect x="680" y="720" width="200" height="40" style="fill:white;stroke:black;stroke-width:1" /><text x="690" y="730" font-size="10" style="fill:blue">section</text><path d="M660 690 C680 690 660 740 680 740" style="fill:transparent;stroke:black" /><text x="690" y="740" font-size="8" style="fill:black">distance: 190.12</text><text x="690" y="750" font-size="8" style="fill:black">latitude: 30.131690</text><text x="690" y="760" font-size="8" style="fill:black">longitude: -97.637341</text><text x="690" y="770" font-size="8" style="fill:black">height: 169</text><rect x="746" y="720" width="137" height="40" style="fill:green;stroke:black;stroke-width:1" /><text x="756" y="730" font-size="8" style="fill:white">2</text><rect x="680" y="770" width="200" height="40" style="fill:white;stroke:black;stroke-width:1" /><text x="690" y="780" font-size="10" style="fill:blue">section</text><path d="M660 690 C680 690 660 790 680 790" style="fill:transparent;stroke:black" /><text x="690" y="790" font-size="8" style="fill:black">distance: 62.05</text><text x="690" y="800" font-size="8" style="fill:black">latitude: 30.132246</text><text x="690" y="810" font-size="8" style="fill:black">longitude: -97.637248</text><text x="690" y="820" font-size="8" style="fill:black">height: 166</text><rect x="746" y="770" width="137" height="40" style="fill:green;stroke:black;stroke-width:1" /><text x="756" y="780" font-size="8" style="fill:white">3</text><rect x="680" y="820" width="200" height="40" style="fill:white;stroke:black;stroke-width:1" /><text x="690" y="830" font-size="10" style="fill:blue">section</text><path d="M660 690 C680 690 660 840 680 840" style="fill:transparent;stroke:black" /><text x="690" y="840" font-size="8" style="fill:black">distance: 60.2</text><text x="690" y="850" font-size="8" style="fill:black">latitude: 30.132656</text><text x="690" y="860" font-size="8" style="fill:black">longitude: -97.636830</text><text x="690" y="870" font-size="8" style="fill:black">height: 165</text><rect x="746" y="820" width="137" height="40" style="fill:green;stroke:black;stroke-width:1" /><text x="756" y="830" font-size="8" style="fill:white">4</text><rect x="680" y="870" width="200" height="40" style="fill:white;stroke:black;stroke-width:1" /><text x="690" y="880" font-size="10" style="fill:blue">section</text><path d="M660 690 C680 690 660 890 680 890" style="fill:transparent;stroke:black" /><text x="690" y="890" font-size="8" style="fill:black">distance: 179.55</text><text x="690" y="900" font-size="8" style="fill:black">latitude: 30.133524</text><text x="690" y="910" font-size="8" style="fill:black">longitude: -97.635254</text><text x="690" y="920" font-size="8" style="fill:black">height: 168</text><rect x="746" y="870" width="137" height="40" style="fill:green;stroke:black;stroke-width:1" /><text x="756" y="880" font-size="8" style="fill:white">5</text><rect x="680" y="920" width="200" height="40" style="fill:white;stroke:black;stroke-width:1" /><text x="690" y="930" font-size="10" style="fill:blue">section</text><path d="M660 690 C680 690 660 940 680 940" style="fill:transparent;stroke:black" /><text x="690" y="940" font-size="8" style="fill:black">distance: 111.07</text><text x="690" y="950" font-size="8" style="fill:black">latitude: 30.134396</text><text x="690" y="960" font-size="8" style="fill:black">longitude: -97.634680</text><text x="690" y="970" font-size="8" style="fill:black">height: 166</text><rect x="746" y="920" width="137" height="40" style="fill:green;stroke:black;stroke-width:1" /><text x="756" y="930" font-size="8" style="fill:white">6</text><rect x="680" y="970" width="200" height="40" style="fill:white;stroke:black;stroke-width:1" /><text x="690" y="980" font-size="10" style="fill:blue">section</text><path d="M660 690 C680 690 660 990 680 990" style="fill:transparent;stroke:black" /><text x="690" y="990" font-size="8" style="fill:black">distance: 80.57</text><text x="690" y="1000" font-size="8" style="fill:black">latitude: 30.134719</text><text x="690" y="1010" font-size="8" style="fill:black">longitude: -97.633931</text><text x="690" y="1020" font-size="8" style="fill:black">height: 166</text><rect x="746" y="970" width="137" height="40" style="fill:green;stroke:black;stroke-width:1" /><text x="756" y="980" font-size="8" style="fill:white">7</text><rect x="680" y="1020" width="200" height="40" style="fill:white;stroke:black;stroke-width:1" /><text x="690" y="1030" font-size="10" style="fill:blue">section</text><path d="M660 690 C680 690 660 1040 680 1040" style="fill:transparent;stroke:black" /><text x="690" y="1040" font-size="8" style="fill:black">distance: 107.95</text><text x="690" y="1050" font-size="8" style="fill:black">latitude: 30.135643</text><text x="690" y="1060" font-size="8" style="fill:black">longitude: -97.633570</text><text x="690" y="1070" font-size="8" style="fill:black">height: 165</text><rect x="746" y="1020" width="137" height="40" style="fill:green;stroke:black;stroke-width:1" /><text x="756" y="1030" font-size="8" style="fill:white">8</text><rect x="680" y="1070" width="200" height="40" style="fill:white;stroke:black;stroke-width:1" /><text x="690" y="1080" font-size="10" style="fill:blue">section</text><path d="M660 690 C680 690 660 1090 680 1090" style="fill:transparent;stroke:black" /><text x="690" y="1090" font-size="8" style="fill:black">distance: 65.37</text><text x="690" y="1100" font-size="8" style="fill:black">latitude: 30.136053</text><text x="690" y="1110" font-size="8" style="fill:black">longitude: -97.633081</text><text x="690" y="1120" font-size="8" style="fill:black">height: 165</text><rect x="746" y="1070" width="137" height="40" style="fill:green;stroke:black;stroke-width:1" /><text x="756" y="1080" font-size="8" style="fill:white">9</text><rect x="680" y="1120" width="200" height="40" style="fill:white;stroke:black;stroke-width:1" /><text x="690" y="1130" font-size="10" style="fill:blue">section</text><path d="M660 690 C680 690 660 1140 680 1140" style="fill:transparent;stroke:black" /><text x="690" y="1140" font-size="8" style="fill:black">distance: 52.93</text><text x="690" y="1150" font-size="8" style="fill:black">latitude: 30.136199</text><text x="690" y="1160" font-size="8" style="fill:black">longitude: -97.632557</text><text x="690" y="1170" font-size="8" style="fill:black">height: 166</text><rect x="746" y="1120" width="137" height="40" style="fill:green;stroke:black;stroke-width:1" /><text x="756" y="1130" font-size="8" style="fill:white">10</text><rect x="680" y="1170" width="200" height="40" style="fill:white;stroke:black;stroke-width:1" /><text x="690" y="1180" font-size="10" style="fill:blue">section</text><path d="M660 690 C680 690 660 1190 680 1190" style="fill:transparent;stroke:black" /><text x="690" y="1190" font-size="8" style="fill:black">distance: 143.98</text><text x="690" y="1200" font-size="8" style="fill:black">latitude: 30.135737</text><text x="690" y="1210" font-size="8" style="fill:black">longitude: -97.631160</text><text x="690" y="1220" font-size="8" style="fill:black">height: 168</text><rect x="746" y="1170" width="137" height="40" style="fill:green;stroke:black;stroke-width:1" /><text x="756" y="1180" font-size="8" style="fill:white">11</text><rect x="680" y="1220" width="200" height="40" style="fill:white;stroke:black;stroke-width:1" /><text x="690" y="1230" font-size="10" style="fill:blue">section</text><path d="M660 690 C680 690 660 1240 680 1240" style="fill:transparent;stroke:black" /><text x="690" y="1240" font-size="8" style="fill:black">distance: 118.16</text><text x="690" y="1250" font-size="8" style="fill:black">latitude: 30.136434</text><text x="690" y="1260" font-size="8" style="fill:black">longitude: -97.630234</text><text x="690" y="1270" font-size="8" style="fill:black">height: 170</text><rect x="746" y="1220" width="137" height="40" style="fill:green;stroke:black;stroke-width:1" /><text x="756" y="1230" font-size="8" style="fill:white">12</text><rect x="680" y="1270" width="200" height="40" style="fill:white;stroke:black;stroke-width:1" /><text x="690" y="1280" font-size="10" style="fill:blue">section</text><path d="M660 690 C680 690 660 1290 680 1290" style="fill:transparent;stroke:black" /><text x="690" y="1290" font-size="8" style="fill:black">distance: 53.24</text><text x="690" y="1300" font-size="8" style="fill:black">latitude: 30.136653</text><text x="690" y="1310" font-size="8" style="fill:black">longitude: -97.629740</text><text x="690" y="1320" font-size="8" style="fill:black">height: 172</text><rect x="746" y="1270" width="137" height="40" style="fill:green;stroke:black;stroke-width:1" /><text x="756" y="1280" font-size="8" style="fill:white">13</text><rect x="680" y="1320" width="200" height="40" style="fill:white;stroke:black;stroke-width:1" /><text x="690" y="1330" font-size="10" style="fill:blue">section</text><path d="M660 690 C680 690 660 1340 680 1340" style="fill:transparent;stroke:black" /><text x="690" y="1340" font-size="8" style="fill:black">distance: 64.68</text><text x="690" y="1350" font-size="8" style="fill:black">latitude: 30.136304</text><text x="690" y="1360" font-size="8" style="fill:black">longitude: -97.629206</text><text x="690" y="1370" font-size="8" style="fill:black">height: 176</text><rect x="746" y="1320" width="137" height="40" style="fill:green;stroke:black;stroke-width:1" /><text x="756" y="1330" font-size="8" style="fill:white">14</text><rect x="680" y="1370" width="200" height="40" style="fill:white;stroke:black;stroke-width:1" /><text x="690" y="1380" font-size="10" style="fill:blue">section</text><path d="M660 690 C680 690 660 1390 680 1390" style="fill:transparent;stroke:black" /><text x="690" y="1390" font-size="8" style="fill:black">distance: 30.25</text><text x="690" y="1400" font-size="8" style="fill:black">latitude: 30.136159</text><text x="690" y="1410" font-size="8" style="fill:black">longitude: -97.628929</text><text x="690" y="1420" font-size="8" style="fill:black">height: 178</text><rect x="746" y="1370" width="137" height="40" style="fill:green;stroke:black;stroke-width:1" /><text x="756" y="1380" font-size="8" style="fill:white">15</text><rect x="680" y="1420" width="200" height="40" style="fill:white;stroke:black;stroke-width:1" /><text x="690" y="1430" font-size="10" style="fill:blue">section</text><path d="M660 690 C680 690 660 1440 680 1440" style="fill:transparent;stroke:black" /><text x="690" y="1440" font-size="8" style="fill:black">distance: 182.17</text><text x="690" y="1450" font-size="8" style="fill:black">latitude: 30.136531</text><text x="690" y="1460" font-size="8" style="fill:black">longitude: -97.627088</text><text x="690" y="1470" font-size="8" style="fill:black">height: 176</text><rect x="746" y="1420" width="137" height="40" style="fill:green;stroke:black;stroke-width:1" /><text x="756" y="1430" font-size="8" style="fill:white">16</text><rect x="680" y="1470" width="200" height="40" style="fill:white;stroke:black;stroke-width:1" /><text x="690" y="1480" font-size="10" style="fill:blue">section</text><path d="M660 690 C680 690 660 1490 680 1490" style="fill:transparent;stroke:black" /><text x="690" y="1490" font-size="8" style="fill:black">distance: 402.56</text><text x="690" y="1500" font-size="8" style="fill:black">latitude: 30.139374</text><text x="690" y="1510" font-size="8" style="fill:black">longitude: -97.624489</text><text x="690" y="1520" font-size="8" style="fill:black">height: 170</text><rect x="746" y="1470" width="137" height="40" style="fill:green;stroke:black;stroke-width:1" /><text x="756" y="1480" font-size="8" style="fill:white">17</text><rect x="680" y="1520" width="200" height="40" style="fill:white;stroke:black;stroke-width:1" /><text x="690" y="1530" font-size="10" style="fill:blue">section</text><path d="M660 690 C680 690 660 1540 680 1540" style="fill:transparent;stroke:black" /><text x="690" y="1540" font-size="8" style="fill:black">distance: 1192.11</text><text x="690" y="1550" font-size="8" style="fill:black">latitude: 30.137329</text><text x="690" y="1560" font-size="8" style="fill:black">longitude: -97.636635</text><text x="690" y="1570" font-size="8" style="fill:black">height: 161</text><rect x="746" y="1520" width="137" height="40" style="fill:green;stroke:black;stroke-width:1" /><text x="756" y="1530" font-size="8" style="fill:white">18</text><rect x="680" y="1570" width="200" height="40" style="fill:white;stroke:black;stroke-width:1" /><text x="690" y="1580" font-size="10" style="fill:blue">section</text><path d="M660 690 C680 690 660 1590 680 1590" style="fill:transparent;stroke:black" /><text x="690" y="1590" font-size="8" style="fill:black">distance: 218.02</text><text x="690" y="1600" font-size="8" style="fill:black">latitude: 30.135648</text><text x="690" y="1610" font-size="8" style="fill:black">longitude: -97.635463</text><text x="690" y="1620" font-size="8" style="fill:black">height: 163</text><rect x="746" y="1570" width="137" height="40" style="fill:green;stroke:black;stroke-width:1" /><text x="756" y="1580" font-size="8" style="fill:white">19</text><rect x="680" y="1620" width="200" height="40" style="fill:white;stroke:black;stroke-width:1" /><text x="690" y="1630" font-size="10" style="fill:blue">section</text><path d="M660 690 C680 690 660 1640 680 1640" style="fill:transparent;stroke:black" /><text x="690" y="1640" font-size="8" style="fill:black">distance: 91.38</text><text x="690" y="1650" font-size="8" style="fill:black">latitude: 30.135603</text><text x="690" y="1660" font-size="8" style="fill:black">longitude: -97.636406</text><text x="690" y="1670" font-size="8" style="fill:black">height: 163</text><rect x="746" y="1620" width="137" height="40" style="fill:green;stroke:black;stroke-width:1" /><text x="756" y="1630" font-size="8" style="fill:white">20</text><rect x="680" y="1670" width="200" height="40" style="fill:white;stroke:black;stroke-width:1" /><text x="690" y="1680" font-size="10" style="fill:blue">section</text><path d="M660 690 C680 690 660 1690 680 1690" style="fill:transparent;stroke:black" /><text x="690" y="1690" font-size="8" style="fill:black">distance: 59.8</text><text x="690" y="1700" font-size="8" style="fill:black">latitude: 30.136089</text><text x="690" y="1710" font-size="8" style="fill:black">longitude: -97.636677</text><text x="690" y="1720" font-size="8" style="fill:black">height: 162</text><rect x="746" y="1670" width="137" height="40" style="fill:green;stroke:black;stroke-width:1" /><text x="756" y="1680" font-size="8" style="fill:white">21</text><rect x="680" y="1720" width="200" height="40" style="fill:white;stroke:black;stroke-width:1" /><text x="690" y="1730" font-size="10" style="fill:blue">section</text><path d="M660 690 C680 690 660 1740 680 1740" style="fill:transparent;stroke:black" /><text x="690" y="1740" font-size="8" style="fill:black">distance: 69.02</text><text x="690" y="1750" font-size="8" style="fill:black">latitude: 30.136547</text><text x="690" y="1760" font-size="8" style="fill:black">longitude: -97.637153</text><text x="690" y="1770" font-size="8" style="fill:black">height: 161</text><rect x="746" y="1720" width="137" height="40" style="fill:green;stroke:black;stroke-width:1" /><text x="756" y="1730" font-size="8" style="fill:white">22</text><rect x="680" y="1770" width="200" height="40" style="fill:white;stroke:black;stroke-width:1" /><text x="690" y="1780" font-size="10" style="fill:blue">section</text><path d="M660 690 C680 690 660 1790 680 1790" style="fill:transparent;stroke:black" /><text x="690" y="1790" font-size="8" style="fill:black">distance: 60.81</text><text x="690" y="1800" font-size="8" style="fill:black">latitude: 30.136549</text><text x="690" y="1810" font-size="8" style="fill:black">longitude: -97.637782</text><text x="690" y="1820" font-size="8" style="fill:black">height: 162</text><rect x="746" y="1770" width="137" height="40" style="fill:green;stroke:black;stroke-width:1" /><text x="756" y="1780" font-size="8" style="fill:white">23</text><rect x="680" y="1820" width="200" height="40" style="fill:white;stroke:black;stroke-width:1" /><text x="690" y="1830" font-size="10" style="fill:blue">section</text><path d="M660 690 C680 690 660 1840 680 1840" style="fill:transparent;stroke:black" /><text x="690" y="1840" font-size="8" style="fill:black">distance: 204.26</text><text x="690" y="1850" font-size="8" style="fill:black">latitude: 30.134908</text><text x="690" y="1860" font-size="8" style="fill:black">longitude: -97.636812</text><text x="690" y="1870" font-size="8" style="fill:black">height: 163</text><rect x="746" y="1820" width="137" height="40" style="fill:green;stroke:black;stroke-width:1" /><text x="756" y="1830" font-size="8" style="fill:white">24</text><rect x="680" y="1870" width="200" height="40" style="fill:white;stroke:black;stroke-width:1" /><text x="690" y="1880" font-size="10" style="fill:blue">section</text><path d="M660 690 C680 690 660 1890 680 1890" style="fill:transparent;stroke:black" /><text x="690" y="1890" font-size="8" style="fill:black">distance: 97.74</text><text x="690" y="1900" font-size="8" style="fill:black">latitude: 30.134055</text><text x="690" y="1910" font-size="8" style="fill:black">longitude: -97.637075</text><text x="690" y="1920" font-size="8" style="fill:black">height: 165</text><rect x="746" y="1870" width="137" height="40" style="fill:green;stroke:black;stroke-width:1" /><text x="756" y="1880" font-size="8" style="fill:white">25</text><rect x="680" y="1920" width="200" height="40" style="fill:white;stroke:black;stroke-width:1" /><text x="690" y="1930" font-size="10" style="fill:blue">section</text><path d="M660 690 C680 690 660 1940 680 1940" style="fill:transparent;stroke:black" /><text x="690" y="1940" font-size="8" style="fill:black">distance: 103.33</text><text x="690" y="1950" font-size="8" style="fill:black">latitude: 30.133635</text><text x="690" y="1960" font-size="8" style="fill:black">longitude: -97.638035</text><text x="690" y="1970" font-size="8" style="fill:black">height: 165</text><rect x="746" y="1920" width="137" height="40" style="fill:green;stroke:black;stroke-width:1" /><text x="756" y="1930" font-size="8" style="fill:white">26</text><rect x="680" y="1970" width="200" height="40" style="fill:white;stroke:black;stroke-width:1" /><text x="690" y="1980" font-size="10" style="fill:blue">section</text><path d="M660 690 C680 690 660 1990 680 1990" style="fill:transparent;stroke:black" /><text x="690" y="1990" font-size="8" style="fill:black">distance: 70.07</text><text x="690" y="2000" font-size="8" style="fill:black">latitude: 30.133730</text><text x="690" y="2010" font-size="8" style="fill:black">longitude: -97.638752</text><text x="690" y="2020" font-size="8" style="fill:black">height: 164</text><rect x="746" y="1970" width="137" height="40" style="fill:green;stroke:black;stroke-width:1" /><text x="756" y="1980" font-size="8" style="fill:white">27</text><rect x="680" y="2020" width="200" height="40" style="fill:white;stroke:black;stroke-width:1" /><text x="690" y="2030" font-size="10" style="fill:blue">section</text><path d="M660 690 C680 690 660 2040 680 2040" style="fill:transparent;stroke:black" /><text x="690" y="2040" font-size="8" style="fill:black">distance: 59.1</text><text x="690" y="2050" font-size="8" style="fill:black">latitude: 30.134012</text><text x="690" y="2060" font-size="8" style="fill:black">longitude: -97.639270</text><text x="690" y="2070" font-size="8" style="fill:black">height: 161</text><rect x="746" y="2020" width="137" height="40" style="fill:green;stroke:black;stroke-width:1" /><text x="756" y="2030" font-size="8" style="fill:white">28</text><rect x="680" y="2070" width="200" height="40" style="fill:white;stroke:black;stroke-width:1" /><text x="690" y="2080" font-size="10" style="fill:blue">section</text><path d="M660 690 C680 690 660 2090 680 2090" style="fill:transparent;stroke:black" /><text x="690" y="2090" font-size="8" style="fill:black">distance: 215.46</text><text x="690" y="2100" font-size="8" style="fill:black">latitude: 30.135528</text><text x="690" y="2110" font-size="8" style="fill:black">longitude: -97.640670</text><text x="690" y="2120" font-size="8" style="fill:black">height: 158</text><rect x="746" y="2070" width="137" height="40" style="fill:green;stroke:black;stroke-width:1" /><text x="756" y="2080" font-size="8" style="fill:white">29</text><rect x="680" y="2120" width="200" height="40" style="fill:white;stroke:black;stroke-width:1" /><text x="690" y="2130" font-size="10" style="fill:blue">section</text><path d="M660 690 C680 690 660 2140 680 2140" style="fill:transparent;stroke:black" /><text x="690" y="2140" font-size="8" style="fill:black">distance: 280.71</text><text x="690" y="2150" font-size="8" style="fill:black">latitude: 30.134590</text><text x="690" y="2160" font-size="8" style="fill:black">longitude: -97.643371</text><text x="690" y="2170" font-size="8" style="fill:black">height: 156</text><rect x="746" y="2120" width="137" height="40" style="fill:green;stroke:black;stroke-width:1" /><text x="756" y="2130" font-size="8" style="fill:white">30</text><rect x="680" y="2170" width="200" height="40" style="fill:white;stroke:black;stroke-width:1" /><text x="690" y="2180" font-size="10" style="fill:blue">section</text><path d="M660 690 C680 690 660 2190 680 2190" style="fill:transparent;stroke:black" /><text x="690" y="2190" font-size="8" style="fill:black">distance: 36.24</text><text x="690" y="2200" font-size="8" style="fill:black">latitude: 30.134258</text><text x="690" y="2210" font-size="8" style="fill:black">longitude: -97.643349</text><text x="690" y="2220" font-size="8" style="fill:black">height: 157</text><rect x="746" y="2170" width="137" height="40" style="fill:green;stroke:black;stroke-width:1" /><text x="756" y="2180" font-size="8" style="fill:white">31</text></svg>