<?xml version="1.0" encoding="UTF-8"?>
<svg xmlns="http://www.w3.org/2000/svg" viewBox="0 0 570 300">
<polyline points="
0,300
10.0,220.43478260869566
31.65058027421943,240.0
38.71674115164062,244.33734939759037
45.572226805480355,245.8181818181818
66.01911134280466,241.42857142857144
78.66759625263819,244.33734939759037
87.84278693585857,244.33734939759037
100.13597092808446,245.8181818181818
107.58020842295994,245.8181818181818
113.60779738737419,244.33734939759037
130.00402370697293,241.42857142857144
143.45990717637,238.58823529411762
149.52279847554652,235.81395348837208
156.88845980595107,230.45454545454544
160.3332844077559,227.86516853932585
181.07853061307128,230.45454545454544
226.92145926439554,238.58823529411762
362.67715698530714,251.92546583850933
387.50494738813336,248.83435582822088
397.9111646480648,248.83435582822088
404.7210989022112,250.37037037037035
412.580992919288,251.92546583850933
419.50594445766006,250.37037037037035
442.76676671103723,248.83435582822088
453.8972512260919,245.8181818181818
465.66431655186034,245.8181818181818
473.6437829931319,247.3170731707317
480.37400229781514,251.92546583850933
504.9102637426043,256.7088607594937
536.877097262361,260.0
541.0040540745728,258.343949044586
561.0040540745728,300
0,300
"
style="fill:white;stroke:blue;stroke-width:3"/>
</svg>
